<?xml version="1.0" standalone="no"?>
<!DOCTYPE svg PUBLIC "-//W3C//DTD SVG 20010904//EN"
 "http://www.w3.org/TR/2001/REC-SVG-20010904/DTD/svg10.dtd">
<svg version="1.0" xmlns="http://www.w3.org/2000/svg"
 width="570.000000pt" height="543.000000pt" viewBox="0 0 570.000000 543.000000"
 preserveAspectRatio="xMidYMid meet">

<g transform="translate(0.000000,543.000000) scale(0.100000,-0.100000)"
fill='#ffc33e' stroke="none">
<path d="M2806 5269 c-66 -16 -159 -66 -200 -108 -33 -34 -42 -38 -63 -30 -13
5 -52 13 -86 19 -176 28 -358 -66 -448 -232 -33 -61 -34 -67 -34 -173 0 -104
2 -114 32 -176 19 -38 52 -84 78 -108 25 -23 45 -45 45 -49 0 -5 -46 -39 -101
-77 -213 -144 -408 -370 -526 -610 -226 -456 -200 -1037 65 -1478 78 -131 131
-197 251 -317 217 -216 484 -357 811 -427 128 -27 459 -25 590 5 201 44 398
126 549 226 354 235 595 587 681 994 27 127 37 354 21 492 -54 461 -304 869
-692 1130 l-87 58 54 53 c238 234 94 636 -246 689 -67 10 -173 0 -212 -21 -16
-9 -27 -3 -67 34 -55 51 -102 78 -180 101 -59 17 -172 20 -235 5z m202 -204
c77 -23 132 -70 169 -145 18 -35 36 -87 41 -114 l8 -51 21 40 c11 22 24 56 28
75 9 45 19 57 69 83 61 31 184 30 246 -2 61 -32 107 -76 138 -136 24 -44 27
-61 27 -145 0 -120 -21 -168 -117 -263 -38 -37 -73 -79 -79 -95 -36 -94 -202
-693 -216 -775 -8 -51 -30 -64 -150 -88 -85 -18 -126 -20 -308 -17 -210 4
-327 21 -369 51 -11 8 -38 94 -75 242 -60 232 -86 326 -143 510 -29 96 -33
102 -98 165 -38 36 -80 89 -96 120 -26 49 -29 65 -29 150 0 84 3 101 27 146
120 228 436 210 563 -31 l26 -50 -5 55 c-3 30 -8 75 -11 100 -7 43 -5 48 35
93 80 90 178 117 298 82z m584 -845 c6 0 23 -10 38 -22 63 -51 75 -58 87 -54
7 3 12 1 10 -5 -1 -6 7 -16 17 -22 30 -18 201 -189 221 -220 14 -22 20 -25 27
-15 7 10 8 9 4 -4 -3 -10 -1 -20 3 -23 5 -3 30 -41 56 -86 36 -60 50 -77 57
-67 8 10 9 9 4 -4 -3 -10 10 -52 29 -93 19 -42 35 -84 35 -93 0 -15 2 -15 11
-2 8 12 9 10 4 -7 -3 -12 -1 -33 6 -45 7 -13 14 -34 15 -47 2 -13 6 -31 10
-40 4 -9 8 -29 10 -46 2 -16 7 -41 10 -55 4 -14 6 -38 5 -55 -1 -18 1 -25 6
-18 11 16 5 -346 -7 -377 -5 -14 -14 -52 -21 -85 -24 -124 -107 -314 -189
-435 -24 -35 -43 -74 -42 -85 1 -14 -1 -16 -7 -7 -6 10 -16 3 -39 -26 l-32
-40 -102 25 c-57 13 -124 29 -150 34 l-46 10 -71 145 c-38 79 -74 144 -78 144
-5 0 -29 -21 -53 -46 -69 -70 -194 -164 -309 -232 -58 -34 -99 -62 -92 -62 50
0 258 79 351 134 34 20 64 36 68 36 4 0 20 -32 36 -72 l29 -71 -54 -46 c-29
-25 -115 -101 -191 -169 -76 -68 -142 -121 -146 -118 -11 6 -43 79 -89 201
l-38 100 -66 3 c-45 2 -69 -1 -76 -10 -6 -7 -26 -58 -45 -113 -35 -100 -73
-185 -84 -185 -4 0 -50 40 -103 88 -53 49 -136 123 -186 166 -49 43 -91 81
-93 85 -4 11 57 141 66 141 4 0 12 -4 17 -9 39 -37 342 -161 393 -161 10 0
-25 25 -77 55 -133 79 -215 138 -298 219 -40 38 -75 67 -77 65 -2 -2 -36 -68
-75 -146 l-71 -141 -87 -21 c-49 -11 -117 -26 -152 -33 l-63 -12 -25 29 c-14
17 -33 40 -43 52 -10 12 -23 30 -29 41 -6 11 -17 26 -24 34 -18 18 -108 190
-135 258 -19 49 -53 168 -68 240 -3 14 -7 59 -10 100 -3 41 -9 90 -14 108 -4
18 -5 30 -2 28 4 -2 7 54 7 124 0 70 3 124 6 119 3 -5 13 23 22 62 9 39 14 76
11 81 -4 7 -2 8 4 4 12 -7 16 12 14 69 -1 25 0 27 7 10 7 -17 10 -13 22 25 7
25 17 48 23 52 5 3 9 20 9 38 0 21 3 27 10 18 6 -9 7 -6 4 10 -3 12 -2 20 2
18 4 -3 22 21 40 52 19 31 58 89 87 129 31 41 51 78 48 87 -3 7 -1 17 5 21 7
3 8 0 5 -9 -3 -9 -1 -16 5 -16 6 0 11 3 11 8 0 11 84 98 113 117 17 11 24 22
20 32 -4 11 -3 14 6 9 7 -5 33 8 64 31 29 22 69 49 90 62 20 12 37 26 37 30 0
4 9 7 19 8 17 1 21 -7 26 -55 22 -190 48 -390 72 -545 l27 -178 -28 -147 c-15
-81 -36 -172 -46 -202 -11 -30 -19 -68 -20 -83 0 -23 -4 -28 -22 -25 -38 5
-62 61 -66 157 -4 75 -2 89 16 111 20 25 21 25 66 9 52 -19 57 -13 20 24 -52
52 -119 44 -161 -20 -28 -43 -25 -174 6 -236 25 -51 70 -87 109 -87 20 0 22
-4 22 -62 1 -226 144 -441 365 -548 99 -47 174 -64 290 -63 155 2 280 47 406
149 139 111 229 293 229 462 0 58 2 62 23 62 12 0 37 9 55 20 70 43 105 206
63 293 -33 68 -93 86 -147 45 -55 -43 -59 -63 -8 -42 45 19 80 11 90 -19 15
-47 6 -158 -18 -206 -26 -53 -61 -64 -66 -21 -2 14 -12 52 -22 85 -10 33 -31
124 -46 202 l-27 141 26 169 c23 146 49 344 72 548 7 62 16 88 23 67 2 -7 8
-12 14 -12z m-1402 -20 c0 -5 -2 -10 -4 -10 -3 0 -8 5 -11 10 -3 6 -1 10 4 10
6 0 11 -4 11 -10z m-240 -150 c0 -5 -5 -10 -11 -10 -5 0 -7 5 -4 10 3 6 8 10
11 10 2 0 4 -4 4 -10z m2228 -475 c-3 -3 -9 2 -12 12 -6 14 -5 15 5 6 7 -7 10
-15 7 -18z m-1606 -255 c197 -52 526 -50 703 4 28 9 55 16 60 16 6 0 46 -59
90 -132 l80 -131 -1 -91 c-1 -161 -61 -304 -174 -416 -77 -77 -130 -110 -232
-144 -112 -38 -214 -43 -317 -16 -122 31 -195 72 -277 154 -122 123 -178 257
-179 426 l0 95 63 98 c34 54 69 111 77 128 18 34 15 34 107 9z m1715 -72 c-3
-8 -6 -5 -6 6 -1 11 2 17 5 13 3 -3 4 -12 1 -19z m-2570 -890 c-3 -7 -5 -2 -5
12 0 14 2 19 5 13 2 -7 2 -19 0 -25z m2364 -41 c-10 -9 -11 -8 -5 6 3 10 9 15
12 12 3 -3 0 -11 -7 -18z m-1745 -283 c66 -53 164 -131 219 -172 55 -41 104
-78 109 -83 5 -4 3 -20 -4 -36 l-13 -30 -61 17 c-158 44 -191 55 -194 61 -2 4
-13 5 -25 2 -17 -4 -19 -2 -8 5 11 8 5 13 -27 22 -23 6 -42 16 -42 21 0 6 -7
8 -16 5 -8 -3 -12 -2 -9 4 3 6 3 10 -2 11 -45 4 -55 7 -66 18 -9 10 -8 11 8 6
19 -6 19 -6 2 5 -10 6 -25 9 -33 6 -8 -3 -13 -2 -10 2 6 10 -3 22 -28 42 -12
9 -17 10 -12 3 10 -18 -2 -16 -20 2 -9 8 -13 15 -9 15 10 0 -27 35 -39 36 -6
1 -17 2 -23 3 -7 0 -13 6 -13 12 0 5 6 7 13 4 6 -4 -4 8 -23 24 -19 17 -40 29
-47 26 -12 -4 -17 7 -14 28 0 4 -4 7 -11 7 -6 0 -8 3 -4 8 4 4 60 10 124 13
64 3 127 6 138 7 14 1 64 -32 140 -94z m1441 86 c84 0 93 -2 104 -21 6 -12 7
-19 1 -15 -12 7 -88 -61 -84 -76 1 -5 -2 -7 -7 -4 -5 3 -21 -4 -36 -16 -18
-14 -23 -23 -15 -28 8 -5 7 -9 -5 -13 -9 -4 -13 -3 -10 3 3 6 2 10 -3 10 -14
0 -33 -26 -25 -33 3 -4 -1 -7 -10 -7 -19 0 -77 -32 -77 -43 0 -5 -4 -6 -9 -3
-4 3 -17 -1 -27 -9 -19 -15 -18 -15 1 -9 15 4 13 1 -5 -9 -14 -9 -28 -13 -32
-11 -4 3 -31 -7 -59 -22 l-53 -26 34 -14 c18 -8 31 -17 28 -19 -3 -3 -18 2
-35 10 -23 12 -78 15 -78 5 0 -1 -7 -3 -15 -6 -8 -2 -44 -12 -80 -21 -36 -10
-68 -22 -71 -26 -3 -5 -10 -9 -14 -8 -9 0 -37 52 -33 62 2 3 66 55 143 114 77
60 178 139 224 177 78 65 88 70 120 64 20 -3 77 -6 128 -6z m-831 -76 c4 -38
-5 -30 -20 19 -7 24 -36 22 -36 -3 0 -25 17 -26 23 -2 4 13 5 11 6 -5 0 -13
-5 -23 -11 -24 -7 0 -4 -4 7 -9 16 -7 13 -9 -15 -9 -19 1 -29 3 -21 6 8 3 9 8
3 12 -18 11 -2 60 22 63 29 5 36 -3 42 -48z m886 -22 c-10 -3 -10 -7 0 -20 12
-15 11 -15 -4 -4 -18 14 -13 47 5 35 8 -5 7 -8 -1 -11z m-963 -99 c-11 -2 -15
-14 -13 -36 l3 -32 -7 30 -8 30 -7 -34 c-4 -18 -7 -49 -7 -68 0 -20 -4 -32
-10 -28 -9 6 -14 -14 -11 -42 1 -7 -3 -13 -9 -13 -6 0 -9 -4 -6 -8 2 -4 -11
-6 -30 -4 -24 3 -35 0 -40 -12 -3 -9 -13 -16 -22 -16 -13 0 -11 4 5 15 13 9
30 31 39 50 9 19 26 45 38 58 12 13 20 30 18 37 -3 8 0 10 8 5 8 -5 11 -4 7 3
-11 17 26 72 48 71 14 -1 15 -3 4 -6z m121 -7 c0 -8 6 -21 13 -28 19 -19 83
-129 91 -155 6 -18 4 -22 -8 -17 -8 3 -23 1 -34 -5 -19 -10 -21 -6 -23 42 0 9
-4 17 -9 17 -10 0 -40 86 -40 117 0 13 -4 23 -10 23 -5 0 -10 5 -10 10 0 6 7
10 15 10 8 0 15 -6 15 -14z m497 -122 c-3 -3 -12 -4 -19 -1 -8 3 -5 6 6 6 11
1 17 -2 13 -5z m-1090 -30 c-3 -3 -12 -4 -19 -1 -8 3 -5 6 6 6 11 1 17 -2 13
-5z m532 -61 c1 -7 -5 -13 -12 -13 -10 0 -12 10 -9 32 4 28 6 30 13 13 4 -11
8 -26 8 -32z m-322 11 c-3 -3 -12 -4 -19 -1 -8 3 -5 6 6 6 11 1 17 -2 13 -5z"/>
<path d="M3754 3898 c-23 -11 -44 -48 -44 -77 0 -10 9 -30 21 -45 16 -20 29
-26 58 -26 75 0 108 80 55 134 -28 27 -55 32 -90 14z m66 -58 c0 -5 -5 -10
-11 -10 -5 0 -7 5 -4 10 3 6 8 10 11 10 2 0 4 -4 4 -10z m-46 -51 c-3 -5 -10
-7 -15 -3 -5 3 -7 10 -3 15 3 5 10 7 15 3 5 -3 7 -10 3 -15z"/>
<path d="M2049 3841 c-34 -35 -37 -68 -8 -105 16 -20 29 -26 59 -26 44 0 80
35 80 77 0 30 -51 83 -80 83 -12 0 -35 -13 -51 -29z m41 -31 c0 -5 -4 -10 -10
-10 -5 0 -10 5 -10 10 0 6 5 10 10 10 6 0 10 -4 10 -10z"/>
<path d="M3693 3600 c-26 -10 -32 -57 -11 -78 19 -19 66 -15 78 7 14 28 13 38
-10 61 -22 22 -25 23 -57 10z"/>
<path d="M1813 3558 c-30 -15 -46 -58 -34 -90 19 -50 105 -56 130 -9 34 62
-32 131 -96 99z m67 -58 c0 -5 -4 -10 -10 -10 -5 0 -10 5 -10 10 0 6 5 10 10
10 6 0 10 -4 10 -10z"/>
<path d="M3945 3550 c-31 -11 -46 -35 -47 -71 -2 -63 71 -91 117 -44 40 39 29
95 -22 113 -16 5 -37 6 -48 2z m5 -70 c0 -5 -2 -10 -4 -10 -3 0 -8 5 -11 10
-3 6 -1 10 4 10 6 0 11 -4 11 -10z"/>
<path d="M2172 3480 c-28 -26 -28 -55 0 -74 28 -20 43 -20 62 0 30 29 10 94
-28 94 -7 0 -22 -9 -34 -20z"/>
<path d="M3888 3229 c-21 -12 -24 -59 -6 -77 7 -7 25 -12 40 -12 40 0 58 39
34 75 -17 26 -39 31 -68 14z"/>
<path d="M1800 3210 c-22 -22 -26 -51 -10 -81 8 -14 21 -19 50 -19 42 0 60 18
60 59 0 27 -34 61 -60 61 -11 0 -29 -9 -40 -20z m30 -30 c0 -5 -5 -10 -11 -10
-5 0 -7 5 -4 10 3 6 8 10 11 10 2 0 4 -4 4 -10z"/>
<path d="M3775 2862 c-11 -2 -26 -9 -32 -14 -18 -15 -16 -83 3 -102 22 -22 70
-20 94 4 48 48 3 126 -65 112z"/>
<path d="M2096 2788 c-17 -24 -21 -65 -8 -85 13 -20 60 -33 86 -24 25 10 36
30 36 67 0 57 -83 87 -114 42z m74 -38 c0 -5 -5 -10 -11 -10 -5 0 -7 5 -4 10
3 6 8 10 11 10 2 0 4 -4 4 -10z"/>
<path d="M1820 2792 c-20 -6 -40 -32 -40 -53 0 -49 82 -69 102 -24 20 45 -17
91 -62 77z"/>
<path d="M4008 2749 c-22 -13 -24 -62 -2 -79 24 -21 68 -1 72 31 3 27 -20 59
-41 59 -7 0 -20 -5 -29 -11z"/>
<path d="M3730 2510 c-43 -43 -14 -110 47 -110 37 0 63 27 63 67 0 57 -69 84
-110 43z"/>
<path d="M1955 2446 c-29 -29 -31 -43 -9 -74 29 -42 104 -18 104 34 0 26 -20
50 -47 59 -17 4 -29 -1 -48 -19z m75 -46 c0 -5 -2 -10 -4 -10 -3 0 -8 5 -11
10 -3 6 -1 10 4 10 6 0 11 -4 11 -10z"/>
<path d="M2613 3128 c-17 -6 -44 -24 -60 -41 l-28 -30 25 7 c62 17 149 18 196
2 26 -9 49 -15 50 -13 2 2 -3 13 -12 25 -31 45 -114 69 -171 50z"/>
<path d="M3115 3125 c-38 -13 -81 -52 -71 -63 3 -2 19 1 37 7 44 15 116 14
173 -3 l47 -14 -14 21 c-36 54 -106 75 -172 52z"/>
<path d="M3006 3015 c-10 -26 -7 -52 11 -127 16 -68 16 -71 -3 -85 -12 -9 -37
-13 -71 -11 l-52 3 20 -21 c30 -32 74 -37 125 -15 69 31 70 62 11 194 -23 53
-37 72 -41 62z"/>
<path d="M2580 2716 c0 -24 39 -44 105 -52 33 -3 82 -15 108 -25 58 -23 61
-23 81 -3 24 24 20 59 -10 79 -27 17 -91 17 -212 -1 -27 -4 -48 -2 -57 6 -12
10 -15 9 -15 -4z"/>
<path d="M2986 2707 c-28 -28 -26 -61 6 -78 15 -8 31 -6 66 9 26 11 75 23 109
27 61 7 113 33 113 57 0 6 -6 6 -15 -2 -9 -8 -30 -10 -57 -6 -24 4 -78 9 -120
12 -72 6 -78 5 -102 -19z"/>
<path d="M2640 2622 c0 -19 64 -83 108 -107 59 -33 155 -54 218 -48 68 7 165
55 208 103 33 36 45 60 31 60 -3 0 -28 -11 -55 -25 -61 -31 -159 -55 -225 -55
-66 0 -164 24 -225 55 -53 27 -60 29 -60 17z"/>
<path d="M2756 1747 c3 -10 9 -15 12 -12 3 3 0 11 -7 18 -10 9 -11 8 -5 -6z"/>
<path d="M3046 1785 c4 -8 1 -21 -5 -29 -9 -11 -7 -15 8 -19 12 -3 22 1 25 9
3 8 1 14 -4 14 -6 0 -10 6 -10 14 0 8 -4 18 -10 21 -6 3 -7 -1 -4 -10z"/>
<path d="M807 1120 c-63 -16 -112 -47 -161 -101 -58 -64 -80 -134 -74 -228 6
-78 32 -135 89 -192 63 -63 118 -84 219 -84 73 0 92 4 135 27 57 31 95 63 119
101 17 25 17 26 -6 41 -13 8 -40 22 -60 32 l-36 17 -42 -35 c-61 -53 -117 -61
-187 -27 -78 38 -117 144 -78 218 20 40 69 78 115 92 51 16 107 0 156 -43 l35
-31 50 23 c73 35 75 40 29 93 -72 81 -201 122 -303 97z"/>
<path d="M2436 1116 c-114 -43 -161 -181 -89 -266 30 -36 63 -54 156 -86 78
-27 97 -39 97 -64 0 -30 -33 -50 -83 -50 -40 0 -51 5 -79 34 l-33 34 -57 -32
c-32 -17 -58 -33 -58 -37 0 -16 49 -76 79 -96 98 -66 262 -55 330 23 40 45 56
106 42 156 -21 70 -77 117 -176 148 -80 25 -105 41 -105 66 0 52 80 56 125 8
l24 -26 56 32 c30 17 55 38 55 45 0 23 -50 75 -93 97 -52 26 -140 33 -191 14z"/>
<path d="M1210 820 l0 -300 70 0 69 0 3 118 3 117 125 0 125 0 3 -117 3 -118
69 0 70 0 0 300 0 300 -70 0 -69 0 -3 -112 -3 -113 -125 0 -125 0 -3 113 -3
112 -69 0 -70 0 0 -300z"/>
<path d="M1860 820 l0 -300 189 0 189 0 4 49 c6 85 11 81 -118 81 l-114 0 0
55 0 55 105 0 105 0 0 65 0 65 -105 0 -105 0 0 50 0 50 115 0 115 0 0 65 0 65
-190 0 -190 0 0 -300z"/>
<path d="M3050 820 l0 -300 70 0 69 0 3 98 3 97 80 5 c92 7 108 14 158 69 40
44 52 87 45 162 -6 61 -44 113 -108 146 -39 21 -57 23 -182 23 l-138 0 0 -300z
m275 145 c14 -13 25 -33 25 -45 0 -11 -11 -32 -25 -45 -20 -21 -34 -25 -80
-25 l-55 0 0 63 c0 35 3 67 7 70 3 4 28 7 55 7 39 0 54 -5 73 -25z"/>
<path d="M3550 820 l0 -300 70 0 70 0 0 300 0 300 -70 0 -70 0 0 -300z"/>
<path d="M3787 1113 c-4 -3 -7 -33 -7 -65 l0 -58 110 0 c68 0 110 -4 110 -10
0 -6 -49 -89 -110 -186 -101 -162 -110 -179 -110 -225 l0 -49 205 0 205 0 0
65 0 65 -111 0 c-94 0 -110 2 -105 15 3 8 53 90 111 183 98 158 105 172 105
220 l0 52 -198 0 c-109 0 -202 -3 -205 -7z"/>
<path d="M4257 1114 c-4 -4 -7 -34 -7 -66 l0 -58 104 0 c58 0 107 -4 111 -9 3
-5 -44 -89 -105 -186 -101 -163 -110 -181 -110 -226 l0 -49 205 0 205 0 0 65
0 65 -110 0 c-64 0 -110 4 -110 10 0 5 42 76 93 157 123 193 129 206 125 256
l-3 42 -196 3 c-107 1 -198 -1 -202 -4z"/>
<path d="M4811 842 c-56 -154 -105 -289 -108 -300 -5 -21 -2 -22 68 -22 l74 0
20 53 20 52 105 0 105 0 20 -52 20 -53 76 0 77 0 -69 188 c-39 103 -88 238
-111 300 l-41 112 -77 0 -77 0 -102 -278z m208 2 c31 -81 29 -84 -29 -84 -27
0 -50 4 -50 8 0 19 42 132 50 132 4 0 17 -25 29 -56z"/>
</g>
</svg>
